<svg id="visual" viewBox="0 0 1440 300" width="1440" height="300" xmlns="http://www.w3.org/2000/svg" xmlns:xlink="http://www.w3.org/1999/xlink" version="1.1"><rect x="0" y="0" width="1440" height="300" fill="#001220"></rect><path d="M0 32L34.3 34.2C68.7 36.3 137.3 40.7 205.8 38.5C274.3 36.3 342.7 27.7 411.2 24C479.7 20.3 548.3 21.7 617 28.5C685.7 35.3 754.3 47.7 823 53.5C891.7 59.3 960.3 58.7 1028.8 56.8C1097.3 55 1165.7 52 1234.2 45.5C1302.7 39 1371.3 29 1405.7 24L1440 19L1440 301L1405.7 301C1371.3 301 1302.7 301 1234.2 301C1165.7 301 1097.3 301 1028.8 301C960.3 301 891.7 301 823 301C754.3 301 685.7 301 617 301C548.3 301 479.7 301 411.2 301C342.7 301 274.3 301 205.8 301C137.3 301 68.7 301 34.3 301L0 301Z" fill="#1ef409"></path><path d="M0 53L34.3 55.3C68.7 57.7 137.3 62.3 205.8 70.3C274.3 78.3 342.7 89.7 411.2 92C479.7 94.3 548.3 87.7 617 83.3C685.7 79 754.3 77 823 78C891.7 79 960.3 83 1028.8 80.5C1097.3 78 1165.7 69 1234.2 63.3C1302.7 57.7 1371.3 55.3 1405.7 54.2L1440 53L1440 301L1405.7 301C1371.3 301 1302.7 301 1234.2 301C1165.7 301 1097.3 301 1028.8 301C960.3 301 891.7 301 823 301C754.3 301 685.7 301 617 301C548.3 301 479.7 301 411.2 301C342.7 301 274.3 301 205.8 301C137.3 301 68.7 301 34.3 301L0 301Z" fill="#13d710"></path><path d="M0 106L34.3 105.7C68.7 105.3 137.3 104.7 205.8 108.5C274.3 112.3 342.7 120.7 411.2 118C479.7 115.3 548.3 101.7 617 98.7C685.7 95.7 754.3 103.3 823 107.3C891.7 111.3 960.3 111.7 1028.8 109.3C1097.3 107 1165.7 102 1234.2 100.3C1302.7 98.7 1371.3 100.3 1405.7 101.2L1440 102L1440 301L1405.7 301C1371.3 301 1302.7 301 1234.2 301C1165.7 301 1097.3 301 1028.8 301C960.3 301 891.7 301 823 301C754.3 301 685.7 301 617 301C548.3 301 479.7 301 411.2 301C342.7 301 274.3 301 205.8 301C137.3 301 68.7 301 34.3 301L0 301Z" fill="#09bb13"></path><path d="M0 133L34.3 131.7C68.7 130.3 137.3 127.7 205.8 127C274.3 126.3 342.7 127.7 411.2 128.7C479.7 129.7 548.3 130.3 617 131.2C685.7 132 754.3 133 823 132.5C891.7 132 960.3 130 1028.8 132.3C1097.3 134.7 1165.7 141.3 1234.2 143.7C1302.7 146 1371.3 144 1405.7 143L1440 142L1440 301L1405.7 301C1371.3 301 1302.7 301 1234.2 301C1165.7 301 1097.3 301 1028.8 301C960.3 301 891.7 301 823 301C754.3 301 685.7 301 617 301C548.3 301 479.7 301 411.2 301C342.7 301 274.3 301 205.8 301C137.3 301 68.7 301 34.3 301L0 301Z" fill="#039f13"></path><path d="M0 157L34.3 159.7C68.7 162.3 137.3 167.7 205.8 167C274.3 166.3 342.7 159.7 411.2 158.8C479.7 158 548.3 163 617 164.2C685.7 165.3 754.3 162.7 823 162.8C891.7 163 960.3 166 1028.8 169.3C1097.3 172.7 1165.7 176.3 1234.2 174.8C1302.7 173.3 1371.3 166.7 1405.7 163.3L1440 160L1440 301L1405.7 301C1371.3 301 1302.7 301 1234.2 301C1165.7 301 1097.3 301 1028.8 301C960.3 301 891.7 301 823 301C754.3 301 685.7 301 617 301C548.3 301 479.7 301 411.2 301C342.7 301 274.3 301 205.8 301C137.3 301 68.7 301 34.3 301L0 301Z" fill="#018512"></path><path d="M0 218L34.3 215.3C68.7 212.7 137.3 207.3 205.8 201.5C274.3 195.7 342.7 189.3 411.2 187.3C479.7 185.3 548.3 187.7 617 193.8C685.7 200 754.3 210 823 212.2C891.7 214.3 960.3 208.7 1028.8 209.3C1097.3 210 1165.7 217 1234.2 213.5C1302.7 210 1371.3 196 1405.7 189L1440 182L1440 301L1405.7 301C1371.3 301 1302.7 301 1234.2 301C1165.7 301 1097.3 301 1028.8 301C960.3 301 891.7 301 823 301C754.3 301 685.7 301 617 301C548.3 301 479.7 301 411.2 301C342.7 301 274.3 301 205.8 301C137.3 301 68.7 301 34.3 301L0 301Z" fill="#016b10"></path><path d="M0 250L34.3 245.2C68.7 240.3 137.3 230.7 205.8 229.7C274.3 228.7 342.7 236.3 411.2 237.8C479.7 239.3 548.3 234.7 617 234.3C685.7 234 754.3 238 823 241.2C891.7 244.3 960.3 246.7 1028.8 243.3C1097.3 240 1165.7 231 1234.2 230.2C1302.7 229.3 1371.3 236.7 1405.7 240.3L1440 244L1440 301L1405.7 301C1371.3 301 1302.7 301 1234.2 301C1165.7 301 1097.3 301 1028.8 301C960.3 301 891.7 301 823 301C754.3 301 685.7 301 617 301C548.3 301 479.7 301 411.2 301C342.7 301 274.3 301 205.8 301C137.3 301 68.7 301 34.3 301L0 301Z" fill="#02520c"></path><path d="M0 271L34.3 270.2C68.7 269.3 137.3 267.7 205.8 269C274.3 270.3 342.7 274.7 411.2 276.8C479.7 279 548.3 279 617 278.5C685.7 278 754.3 277 823 273.5C891.7 270 960.3 264 1028.8 261.2C1097.3 258.3 1165.7 258.7 1234.2 259.7C1302.7 260.7 1371.3 262.3 1405.7 263.2L1440 264L1440 301L1405.7 301C1371.3 301 1302.7 301 1234.2 301C1165.7 301 1097.3 301 1028.8 301C960.3 301 891.7 301 823 301C754.3 301 685.7 301 617 301C548.3 301 479.7 301 411.2 301C342.7 301 274.3 301 205.8 301C137.3 301 68.7 301 34.3 301L0 301Z" fill="#033b08"></path></svg>