<svg id="visual" viewBox="0 0 1440 300" width="1440" height="300" xmlns="http://www.w3.org/2000/svg" xmlns:xlink="http://www.w3.org/1999/xlink" version="1.1"><path d="M0 144L40 148.5C80 153 160 162 240 161C320 160 400 149 480 145.2C560 141.3 640 144.7 720 142.5C800 140.3 880 132.7 960 129C1040 125.3 1120 125.7 1200 129C1280 132.3 1360 138.7 1400 141.8L1440 145L1440 301L1400 301C1360 301 1280 301 1200 301C1120 301 1040 301 960 301C880 301 800 301 720 301C640 301 560 301 480 301C400 301 320 301 240 301C160 301 80 301 40 301L0 301Z" fill="#033b08" stroke-linecap="round" stroke-linejoin="miter"></path></svg>